<svg id="Capa_1" data-name="Capa 1" xmlns="http://www.w3.org/2000/svg" viewBox="0 0 500 500"><defs><style>.cls-1{fill:#5b541a;}.cls-1,.cls-4{stroke:#000;stroke-miterlimit:10;stroke-width:3px;}.cls-2{fill:#2e2a0d;opacity:0.3;}.cls-3{fill:none;}.cls-4{fill:#fffae1;}</style></defs><rect class="cls-1" x="214.06" y="346.45" width="68.72" height="81.98"/><path class="cls-2" d="M214.26,366.14c-.16,3.86,67.13,37,67.13,37l1.47-36.81Z"/><rect class="cls-3" x="214.06" y="346.45" width="68.72" height="81.98"/><path class="cls-1" d="M30.67,48.65H469.33a8.17,8.17,0,0,1,8.17,8.17V357.88a8.17,8.17,0,0,1-8.17,8.17H30.66a8.16,8.16,0,0,1-8.16-8.16V56.82A8.17,8.17,0,0,1,30.67,48.65Z"/><rect class="cls-4" x="39.06" y="65.83" width="421.88" height="258.62" rx="4.5"/><rect class="cls-1" x="22.5" y="428.44" width="455" height="22.91" rx="2.46"/></svg>