<svg id="Capa_1" data-name="Capa 1" xmlns="http://www.w3.org/2000/svg" viewBox="0 0 500 500"><defs><style>.cls-1{fill:#7c7648;}.cls-1,.cls-2,.cls-3,.cls-4,.cls-5,.cls-6,.cls-7{stroke:#000;stroke-miterlimit:10;stroke-width:3px;}.cls-2{fill:#cbc8b6;}.cls-3{fill:none;}.cls-4{fill:#fffae1;}.cls-5{fill:#5b541a;}.cls-6{fill:#f0b3d0;}.cls-7{fill:#fff;}</style></defs><rect class="cls-1" x="22.43" y="109.44" width="454.55" height="301.76" rx="4.75"/><path class="cls-2" d="M472.23,411.2h-445a4.75,4.75,0,0,1-4.75-4.75v-120H477v120A4.75,4.75,0,0,1,472.23,411.2Z"/><rect class="cls-3" x="22.43" y="109.44" width="454.55" height="301.76" rx="4.75"/><path class="cls-4" d="M358.09,260.32A108.39,108.39,0,1,1,249.71,151.93,108.38,108.38,0,0,1,358.09,260.32Z"/><path class="cls-1" d="M329.59,260.32a79.88,79.88,0,1,1-79.88-79.88A79.89,79.89,0,0,1,329.59,260.32Z"/><path class="cls-5" d="M305.36,260.32a55.66,55.66,0,1,1-55.65-55.66A55.66,55.66,0,0,1,305.36,260.32Z"/><rect class="cls-4" x="52.62" y="130.82" width="76.39" height="42.97" rx="2"/><rect class="cls-1" x="408.81" y="137.66" width="24.83" height="24.83" rx="0.73"/><rect class="cls-1" x="182.38" y="89.8" width="134.65" height="20.05"/><rect class="cls-5" x="60.26" y="89.8" width="52.52" height="20.05"/><rect class="cls-1" x="7.15" y="152.31" width="15.28" height="51.09"/><rect class="cls-1" x="476.52" y="148.01" width="14.32" height="55.39"/><line class="cls-6" x1="22.43" y1="286.47" x2="141.32" y2="286.47"/><line class="cls-6" x1="358.09" y1="286.47" x2="476.98" y2="286.47"/><path class="cls-7" d="M287.52,243.24a10.87,10.87,0,1,1-10.86-10.86A10.87,10.87,0,0,1,287.52,243.24Z"/></svg>